<svg xmlns="http://www.w3.org/2000/svg" width="594.951" height="29.093" viewBox="0 0 157.414 7.698">
  <path d="M2.822.838L1.578 4.012h2.496zm1.984 5.131l-.52-1.314H1.357L.838 5.97H0L2.372.088h.908l2.363 5.881zM6.58.088h.73V5.97h-.73zM14.577 3.836c0-.944-.511-1.64-1.366-1.64-.52 0-1.04.308-1.27.678v1.923c.23.37.75.687 1.27.687.855 0 1.366-.705 1.366-1.648m-2.636 1.49V7.59h-.662v-5.88h.662v.634a1.78 1.78 0 0 1 1.437-.74c1.12 0 1.896.846 1.896 2.23 0 1.376-.776 2.24-1.896 2.24-.582 0-1.084-.282-1.437-.75M19.763 3.836c0-.865-.503-1.64-1.41-1.64-.909 0-1.411.775-1.411 1.64 0 .872.502 1.648 1.41 1.648.908 0 1.411-.776 1.411-1.648m-3.518 0c0-1.235.811-2.231 2.107-2.231 1.296 0 2.108.996 2.108 2.23 0 1.235-.812 2.24-2.108 2.24s-2.107-1.005-2.107-2.24M25.39 5.97l-1.111-3.422-1.111 3.421h-.662L21.15 1.71h.687l1.04 3.395 1.12-3.395h.574l1.11 3.395 1.041-3.395h.697L26.06 5.97zM30.188 2.151c-.908 0-1.358.768-1.393 1.411h2.795c-.01-.626-.432-1.41-1.402-1.41m-2.09 1.683c0-1.234.882-2.23 2.099-2.23 1.287 0 2.045 1.005 2.045 2.283v.168h-3.439c.053.802.609 1.472 1.526 1.472.494 0 .979-.194 1.322-.546l.318.432c-.432.423-1.005.66-1.693.66-1.27 0-2.178-.907-2.178-2.239M33.478 5.97V1.71h.661v.68c.344-.441.838-.777 1.42-.777v.68c-.08-.01-.159-.019-.256-.019-.414 0-.97.336-1.164.68v3.015zM38.399 2.151c-.909 0-1.358.768-1.394 1.411H39.8c-.008-.626-.431-1.41-1.401-1.41m-2.09 1.683c0-1.234.882-2.23 2.098-2.23 1.288 0 2.046 1.005 2.046 2.283v.168h-3.439c.053.802.609 1.472 1.526 1.472.494 0 .978-.194 1.322-.546l.318.432c-.432.423-1.005.66-1.693.66-1.27 0-2.178-.907-2.178-2.239M44.775 4.805V2.883c-.23-.37-.75-.687-1.27-.687-.864 0-1.376.705-1.376 1.648 0 .944.512 1.64 1.376 1.64.52 0 1.04-.308 1.27-.679m0 1.164v-.635c-.318.433-.838.741-1.438.741-1.11 0-1.895-.847-1.895-2.23 0-1.368.785-2.24 1.895-2.24.573 0 1.094.282 1.438.75V.087h.661v5.881zM51.169 5.97L48.797.087h.838l1.984 5.079L53.602.088h.838l-2.363 5.881zM55.35 1.71h.661V5.97h-.661zM55.235.661c0-.247.203-.45.45-.45.246 0 .44.203.44.45s-.194.441-.44.441a.444.444 0 0 1-.45-.44M57.14 5.405l.335-.476c.282.326.82.608 1.402.608.652 0 1.014-.309 1.014-.732 0-1.031-2.636-.396-2.636-1.975 0-.67.564-1.225 1.578-1.225.732 0 1.243.273 1.578.617l-.308.458c-.256-.308-.714-.537-1.27-.537-.582 0-.943.29-.943.67 0 .925 2.636.317 2.636 1.975 0 .714-.573 1.287-1.667 1.287-.705 0-1.287-.22-1.719-.67M64.644 5.97v-.6c-.326.37-.881.705-1.516.705-.89 0-1.358-.44-1.358-1.358V1.71h.661v2.804c0 .75.38.97.961.97.512 0 1.006-.3 1.252-.643V1.71h.662v4.258zM69.46 5.07v-.811c-.256-.344-.706-.52-1.164-.52-.626 0-1.058.387-1.058.925 0 .547.432.935 1.058.935.458 0 .908-.177 1.164-.529m0 .9v-.486c-.344.388-.838.591-1.41.591-.715 0-1.482-.485-1.482-1.41 0-.962.758-1.403 1.481-1.403.582 0 1.067.185 1.41.574v-.768c0-.564-.458-.89-1.075-.89-.511 0-.926.176-1.305.59l-.308-.458c.458-.476 1.005-.705 1.701-.705.908 0 1.649.405 1.649 1.437v2.927zM71.621.088h.661V5.97h-.66zM77.706 5.97V.74h-1.86V.089h4.461v.653h-1.869v5.228zM82.248 2.151c-.908 0-1.358.768-1.393 1.411h2.795c-.01-.626-.432-1.41-1.402-1.41m-2.09 1.683c0-1.234.882-2.23 2.098-2.23 1.288 0 2.046 1.005 2.046 2.283v.168h-3.439c.054.802.609 1.472 1.526 1.472.494 0 .979-.194 1.322-.546l.318.432c-.432.423-1.005.66-1.693.66-1.27 0-2.178-.907-2.178-2.239M85.176 5.405l.335-.476c.283.326.82.608 1.402.608.653 0 1.014-.309 1.014-.732 0-1.031-2.636-.396-2.636-1.975 0-.67.564-1.225 1.578-1.225.732 0 1.244.273 1.578.617l-.308.458c-.256-.308-.714-.537-1.27-.537-.582 0-.943.29-.943.67 0 .925 2.636.317 2.636 1.975 0 .714-.573 1.287-1.666 1.287-.706 0-1.287-.22-1.72-.67M89.939 5.079V2.293h-.706V1.71h.706V.546h.67V1.71h.864v.583h-.864v2.645c0 .317.14.546.423.546a.626.626 0 0 0 .45-.185l.194.503c-.168.159-.406.273-.785.273-.635 0-.952-.361-.952-.996M92.567 1.71h.661V5.97h-.661zM92.452.661c0-.247.203-.45.45-.45s.44.203.44.45-.193.441-.44.441a.444.444 0 0 1-.45-.44M97.602 5.97V3.182c0-.758-.388-.988-.961-.988-.52 0-1.005.318-1.261.662v3.112h-.661V1.71h.661v.618c.3-.362.882-.723 1.525-.723.882 0 1.35.45 1.35 1.375v2.99zM102.84 4.744v-1.87a1.611 1.611 0 0 0-1.27-.679c-.863 0-1.375.68-1.375 1.623 0 .934.512 1.613 1.376 1.613.52 0 1.031-.317 1.27-.687m-3.095 2.31l.335-.477c.352.415.776.574 1.384.574.705 0 1.375-.344 1.375-1.243v-.644c-.317.432-.837.758-1.436.758-1.112 0-1.896-.829-1.896-2.204 0-1.367.775-2.213 1.896-2.213.572 0 1.092.282 1.436.75V1.71h.662v4.198c0 1.349-.996 1.79-2.037 1.79-.714 0-1.208-.142-1.72-.644M108.988 2.39c.626-.31 1.164-.618 1.164-1.209 0-.431-.3-.67-.697-.67-.45 0-.82.353-.82.864 0 .31.15.67.353 1.014m1.243 2.557a20.429 20.429 0 0 1-.81-.89 10.11 10.11 0 0 1-.733-.935c-.494.3-.873.661-.873 1.27 0 .732.564 1.137 1.19 1.137.486 0 .891-.237 1.226-.582m1.04 1.023c-.176-.15-.405-.379-.643-.617-.432.432-.979.723-1.693.723-1.005 0-1.825-.555-1.825-1.64 0-.917.617-1.384 1.296-1.755-.265-.45-.45-.908-.45-1.322 0-.776.644-1.358 1.482-1.358.758 0 1.322.414 1.322 1.155 0 .882-.75 1.27-1.499 1.658.238.317.494.617.688.837.238.282.468.538.696.785.318-.485.53-1.023.635-1.349l.565.256c-.194.467-.45 1.023-.803 1.516.353.362.715.714 1.147 1.111zM120.779 5.97V1.022l-1.993 4.946h-.3l-2.001-4.946v4.946h-.732V.088h1.05l1.833 4.532L120.46.088h1.05v5.881zM126.3 3.836c0-.865-.503-1.64-1.41-1.64-.909 0-1.411.775-1.411 1.64 0 .872.502 1.648 1.41 1.648.908 0 1.411-.776 1.411-1.648m-3.518 0c0-1.235.811-2.231 2.107-2.231 1.296 0 2.108.996 2.108 2.23 0 1.235-.812 2.24-2.108 2.24s-2.107-1.005-2.107-2.24M131.124 5.97V3.182c0-.758-.388-.988-.961-.988-.52 0-1.005.318-1.26.662v3.112h-.662V1.71h.661v.618c.3-.362.882-.723 1.526-.723.881 0 1.349.45 1.349 1.375v2.99zM133.277 1.71h.661V5.97h-.66zm-.115-1.049c0-.247.203-.45.45-.45s.441.203.441.45-.194.441-.441.441a.444.444 0 0 1-.45-.44M135.56 5.079V2.293h-.704V1.71h.705V.546h.67V1.71h.864v.583h-.864v2.645c0 .317.141.546.423.546a.626.626 0 0 0 .45-.185l.194.503c-.168.159-.406.273-.785.273-.635 0-.952-.361-.952-.996M141.46 3.836c0-.865-.502-1.64-1.41-1.64-.909 0-1.411.775-1.411 1.64 0 .872.502 1.648 1.41 1.648.909 0 1.411-.776 1.411-1.648m-3.518 0c0-1.235.811-2.231 2.107-2.231 1.297 0 2.108.996 2.108 2.23 0 1.235-.811 2.24-2.108 2.24-1.296 0-2.107-1.005-2.107-2.24M143.402 5.97V1.71h.66v.68c.345-.441.838-.777 1.42-.777v.68c-.08-.01-.159-.019-.256-.019-.414 0-.97.336-1.163.68v3.015zM146.48 1.71h.66V5.97h-.66zm-.115-1.049c0-.247.202-.45.45-.45.246 0 .44.203.44.45s-.194.441-.44.441a.444.444 0 0 1-.45-.44M151.514 5.97V3.182c0-.758-.388-.988-.96-.988-.52 0-1.006.318-1.262.662v3.112h-.66V1.71h.66v.618c.3-.362.882-.723 1.526-.723.881 0 1.35.45 1.35 1.375v2.99zM156.753 4.744v-1.87a1.611 1.611 0 0 0-1.27-.679c-.864 0-1.375.68-1.375 1.623 0 .934.511 1.613 1.375 1.613.52 0 1.032-.317 1.27-.687m-3.095 2.31l.335-.477c.353.415.776.574 1.385.574.705 0 1.375-.344 1.375-1.243v-.644c-.317.432-.838.758-1.437.758-1.111 0-1.896-.829-1.896-2.204 0-1.367.776-2.213 1.896-2.213.573 0 1.093.282 1.437.75V1.71h.661v4.198c0 1.349-.996 1.79-2.036 1.79-.715 0-1.209-.142-1.72-.644" fill="#58595b"/>
</svg>