<svg xmlns="http://www.w3.org/2000/svg" width="598.924" height="132.94" viewBox="0 0 158.465 35.174">
  <path d="M12.937 23.045v-2.426c-.848-1.132-2.465-1.739-4.123-1.739-2.022 0-3.68 1.092-3.68 2.951 0 1.86 1.658 2.911 3.68 2.911 1.658 0 3.275-.566 4.123-1.697m0 4.69v-2.063C11.603 27.29 9.3 28.22 6.752 28.22 3.639 28.22 0 26.117 0 21.751c0-4.61 3.639-6.307 6.752-6.307 2.628 0 4.892.85 6.185 2.385v-2.466c0-1.98-1.697-3.275-4.285-3.275-2.062 0-4.002.809-5.62 2.304l-2.02-3.597c2.384-2.143 5.457-3.073 8.53-3.073 4.487 0 8.57 1.78 8.57 7.398v12.614zM35.656 17.95c0-3.355-2.021-5.66-4.972-5.66-1.658 0-3.518.93-4.407 2.224v6.873c.849 1.253 2.749 2.264 4.407 2.264 2.951 0 4.972-2.305 4.972-5.7m-9.379 7.276v9.947h-5.135V8.207h5.135v2.466c1.496-1.9 3.639-2.95 6.024-2.95 5.013 0 8.651 3.718 8.651 10.227 0 6.51-3.638 10.27-8.651 10.27-2.305 0-4.407-.97-6.024-2.993M57.203 17.95c0-3.355-2.022-5.66-4.973-5.66-1.658 0-3.518.93-4.407 2.224v6.873c.85 1.253 2.75 2.264 4.407 2.264 2.951 0 4.973-2.305 4.973-5.7m-9.38 7.276v9.947H42.69V8.207h5.134v2.466c1.496-1.9 3.639-2.95 6.024-2.95 5.013 0 8.652 3.718 8.652 10.227 0 6.51-3.639 10.27-8.652 10.27-2.305 0-4.407-.97-6.024-2.993M64.235.768h5.135v26.966h-5.135zM72.44 8.207h5.135v19.527h-5.134zm-.485-5.175A3.028 3.028 0 0 1 74.988 0c1.697 0 3.072 1.334 3.072 3.032a3.071 3.071 0 0 1-3.072 3.072c-1.658 0-3.033-1.374-3.033-3.072M81.698 22.842V12.695h-3.235V8.207h3.235V2.87h5.134v5.337h3.962v4.488h-3.962v8.773c0 1.253.647 2.183 1.78 2.183.767 0 1.495-.283 1.778-.607l1.092 3.922c-.768.687-2.143 1.253-4.286 1.253-3.598 0-5.498-1.86-5.498-5.377" fill="#00a399"/>
  <path d="M106.358 17.95c0-3.032-1.779-5.66-5.013-5.66-3.193 0-4.973 2.628-4.973 5.66 0 3.073 1.78 5.7 4.973 5.7 3.234 0 5.013-2.627 5.013-5.7m-15.322 0c0-5.538 3.88-10.228 10.31-10.228 6.468 0 10.349 4.69 10.349 10.228 0 5.54-3.881 10.27-10.35 10.27-6.428 0-10.31-4.73-10.31-10.27M127.581 17.95c0-3.032-1.779-5.66-5.013-5.66-3.194 0-4.973 2.628-4.973 5.66 0 3.073 1.779 5.7 4.973 5.7 3.234 0 5.013-2.627 5.013-5.7m-15.322 0c0-5.538 3.88-10.228 10.31-10.228 6.468 0 10.349 4.69 10.349 10.228 0 5.54-3.881 10.27-10.35 10.27-6.428 0-10.31-4.73-10.31-10.27M134.734.768h5.135v26.966h-5.135zM141.242 25.187l2.224-3.72c1.455 1.375 4.326 2.71 6.752 2.71 2.224 0 3.275-.85 3.275-2.063 0-3.193-11.563-.565-11.563-8.247 0-3.275 2.83-6.145 8.005-6.145 3.275 0 5.902 1.132 7.843 2.668l-2.062 3.639c-1.172-1.213-3.396-2.264-5.781-2.264-1.86 0-3.073.808-3.073 1.9 0 2.87 11.603.445 11.603 8.328 0 3.599-3.072 6.227-8.49 6.227-3.396 0-6.67-1.133-8.733-3.033" fill="#00a399"/>
</svg>