<svg
  xmlns="http://www.w3.org/2000/svg" viewBox="0 0 22.449 29.312" height="110.785" width="84.846">
  <path d="M16.293 19.109c-.454-.311-.953-.632-1.375-.903.002-.002.002-.006.006-.011-2.266-1.436-4.415-2.553-6.468-3.362l.045-.02c2.78-1.271 5.517-2.69 7.852-4.285a23.717 23.717 0 0 1-.06 8.581M22.45 5.933V1.487a85.906 85.906 0 0 1-4.96 4.091A16.49 16.49 0 0 0 11.224 0c1.82 1.9 3.275 4.323 4.233 7.075C10.752 10.306 4.992 13.137 0 14.82c5.959 2.451 10.81 4.496 15.351 7.708-.955 2.636-2.372 4.952-4.127 6.785a16.485 16.485 0 0 0 6.1-5.336c2.331 1.768 4.285 3.443 5.125 4.214V23.731a89.377 89.377 0 0 0-1.796-1.443c-.002.003-.007.004-.009.006a88.276 88.276 0 0 0-1.692-1.292 16.35 16.35 0 0 0 .115-12.412c1.185-.893 2.33-1.794 3.381-2.657" fill="#a7a9ac"/>
</svg>